<svg width="4" height="23" viewBox="0 0 4 23" fill="none" xmlns="http://www.w3.org/2000/svg">
<path d="M2.15 1C2.15 0.917157 2.08284 0.85 2 0.85C1.91716 0.85 1.85 0.917157 1.85 1L2.15 1ZM1.89393 22.1061C1.95251 22.1646 2.04749 22.1646 2.10607 22.1061L3.06066 21.1515C3.11924 21.0929 3.11924 20.9979 3.06066 20.9393C3.00208 20.8808 2.90711 20.8808 2.84853 20.9393L2 21.7879L1.15147 20.9393C1.09289 20.8808 0.997918 20.8808 0.939339 20.9393C0.88076 20.9979 0.88076 21.0929 0.939339 21.1515L1.89393 22.1061ZM1.85 1L1.85 2.3125L2.15 2.3125L2.15 1L1.85 1ZM1.85 4.9375L1.85 7.5625L2.15 7.5625L2.15 4.9375L1.85 4.9375ZM1.85 10.1875L1.85 12.8125L2.15 12.8125L2.15 10.1875L1.85 10.1875ZM1.85 15.4375L1.85 18.0625L2.15 18.0625L2.15 15.4375L1.85 15.4375ZM1.85 20.6875L1.85 22L2.15 22L2.15 20.6875L1.85 20.6875ZM2.15 1C2.15 0.917157 2.08284 0.85 2 0.85C1.91716 0.85 1.85 0.917157 1.85 1L2.15 1ZM1.89393 22.1061C1.95251 22.1646 2.04749 22.1646 2.10607 22.1061L3.06066 21.1515C3.11924 21.0929 3.11924 20.9979 3.06066 20.9393C3.00208 20.8808 2.90711 20.8808 2.84853 20.9393L2 21.7879L1.15147 20.9393C1.09289 20.8808 0.997918 20.8808 0.939339 20.9393C0.88076 20.9979 0.88076 21.0929 0.939339 21.1515L1.89393 22.1061ZM1.85 1L1.85 2.3125L2.15 2.3125L2.15 1L1.85 1ZM1.85 4.9375L1.85 7.5625L2.15 7.5625L2.15 4.9375L1.85 4.9375ZM1.85 10.1875L1.85 12.8125L2.15 12.8125L2.15 10.1875L1.85 10.1875ZM1.85 15.4375L1.85 18.0625L2.15 18.0625L2.15 15.4375L1.85 15.4375ZM1.85 20.6875L1.85 22L2.15 22L2.15 20.6875L1.85 20.6875Z" fill="#9CA3AF"/>
</svg>
